<svg width="646" height="801" viewBox="0 0 646 801" fill="none" xmlns="http://www.w3.org/2000/svg">
<g clip-path="url(#clip0)">
<path d="M296.626 440.701C296.511 440.701 296.438 440.697 296.413 440.695L282.6 440.697V437.955H296.463C296.784 437.971 303.332 438.22 309.366 428.365C318.357 413.677 325.741 377.318 309.856 287.512C288.497 166.754 306.311 60.0716 314.962 19.8097C315.388 17.8178 315.464 15.7197 315.184 13.6813C314.905 11.6429 314.277 9.71999 313.35 8.06451C312.423 6.40902 311.223 5.06631 309.845 4.14249C308.466 3.21868 306.947 2.73905 305.407 2.74152H99.1234C97.555 2.74435 96.0093 3.24492 94.6116 4.20259C93.2139 5.16026 92.0037 6.54806 91.0791 8.25334C87.4146 15.0388 82.3857 28.0744 79.2388 51.6449L77.2345 51.1604C80.4495 27.0778 85.642 13.6587 89.4318 6.64163C90.5455 4.58685 92.0036 2.91458 93.6875 1.7606C95.3714 0.606607 97.2338 0.00341429 99.1233 7.45968e-06H305.407C307.263 -0.00239621 309.093 0.576116 310.754 1.68984C312.415 2.80356 313.861 4.42197 314.978 6.41722C316.094 8.41247 316.851 10.7299 317.188 13.1864C317.524 15.6429 317.432 18.1711 316.918 20.5714C308.313 60.6245 290.59 166.753 311.838 286.877C327.945 377.947 320.202 415.094 310.869 430.219C304.714 440.196 297.932 440.701 296.626 440.701Z" fill="#969393" fill-opacity="0.62"/>
<path d="M259.458 490.734C259.343 490.734 259.27 490.73 259.245 490.728L245.432 490.73V487.988H259.295C259.618 488.001 266.164 488.253 272.198 478.397C281.189 463.71 288.573 427.351 272.688 337.544C251.329 216.787 269.143 110.104 277.794 69.8424C278.22 67.8505 278.296 65.7524 278.016 63.714C277.737 61.6756 277.109 59.7527 276.182 58.0972C275.255 56.4417 274.055 55.099 272.677 54.1752C271.298 53.2514 269.779 52.7718 268.239 52.7742H61.9552C60.3869 52.7771 58.8412 53.2776 57.4435 54.2353C56.0458 55.193 54.8355 56.5808 53.911 58.2861C50.2465 65.0716 45.2176 78.1071 42.0708 101.678L40.0663 101.193C43.2814 77.1105 48.4739 63.6914 52.2637 56.6743C53.3774 54.6196 54.8355 52.9473 56.5194 51.7933C58.2033 50.6393 60.0656 50.0361 61.9552 50.0327H268.239C270.095 50.0303 271.925 50.6088 273.586 51.7226C275.247 52.8363 276.693 54.4547 277.81 56.4499C278.926 58.4452 279.683 60.7626 280.02 63.2191C280.356 65.6756 280.264 68.2038 279.75 70.6041C271.144 110.657 253.422 216.786 274.669 336.91C290.777 427.979 283.034 465.126 273.701 480.252C267.546 490.228 260.763 490.734 259.458 490.734Z" fill="#969393"/>
<path d="M222.29 540.766C222.175 540.766 222.102 540.762 222.077 540.76L18.9726 540.762C17.0172 540.765 15.091 540.123 13.3626 538.892C11.6342 537.661 10.1562 535.878 9.05812 533.7C7.96001 531.522 7.27518 529.015 7.06356 526.398C6.85194 523.782 7.11998 521.135 7.84422 518.69C15.2135 493.906 25.1359 434.445 8.79279 314.668C-10.5055 173.233 6.7716 122.118 15.0954 106.707C16.2092 104.652 17.6673 102.979 19.3512 101.825C21.0352 100.672 22.8976 100.068 24.7872 100.065H231.071C232.926 100.063 234.757 100.641 236.418 101.755C238.079 102.868 239.525 104.487 240.642 106.482C241.758 108.477 242.515 110.795 242.851 113.251C243.188 115.708 243.096 118.236 242.582 120.636C233.976 160.689 216.254 266.818 237.501 386.942C253.609 478.012 245.866 515.159 236.533 530.284C230.378 540.261 223.595 540.766 222.29 540.766ZM24.7872 102.806C23.2189 102.809 21.6731 103.31 20.2754 104.268C18.8776 105.225 17.6673 106.613 16.7427 108.318C8.57327 123.444 -8.36003 173.782 10.7958 314.172C26.4084 428.594 18.8363 489.1 9.73487 519.709C9.12147 521.728 8.89123 523.921 9.06493 526.091C9.23863 528.26 9.81079 530.337 10.7298 532.134C11.6411 533.948 12.8691 535.433 14.3063 536.46C15.7434 537.486 17.3457 538.022 18.9726 538.02H222.127C222.447 538.041 228.996 538.285 235.03 528.43C244.021 513.742 251.404 477.383 235.52 387.577C214.161 266.819 231.975 160.137 240.626 119.875C241.052 117.883 241.128 115.785 240.848 113.746C240.568 111.708 239.94 109.785 239.014 108.129C238.087 106.474 236.887 105.131 235.508 104.207C234.13 103.284 232.611 102.804 231.071 102.806H24.7872Z" fill="#3F3D56"/>
<path d="M195.984 223.433H34.0735C31.9129 223.433 29.8408 222.278 28.3131 220.221C26.7853 218.165 25.927 215.375 25.927 212.467C25.927 209.559 26.7853 206.769 28.3131 204.713C29.8408 202.656 31.9129 201.501 34.0735 201.501H195.984C198.145 201.501 200.217 202.656 201.744 204.713C203.272 206.769 204.13 209.559 204.13 212.467C204.13 215.375 203.272 218.165 201.744 220.221C200.217 222.278 198.145 223.433 195.984 223.433Z" fill="#22C78B"/>
<path d="M195.984 270.039H34.0735C31.9129 270.039 29.8408 268.883 28.3131 266.827C26.7853 264.77 25.927 261.981 25.927 259.072C25.927 256.164 26.7853 253.375 28.3131 251.318C29.8408 249.262 31.9129 248.106 34.0735 248.106H195.984C198.145 248.106 200.217 249.262 201.744 251.318C203.272 253.375 204.13 256.164 204.13 259.072C204.13 261.981 203.272 264.77 201.744 266.827C200.217 268.883 198.145 270.039 195.984 270.039Z" fill="#CCCCCC"/>
<path d="M195.984 316.644H34.0735C31.9129 316.644 29.8408 315.489 28.3131 313.433C26.7853 311.376 25.927 308.587 25.927 305.678C25.927 302.77 26.7853 299.981 28.3131 297.924C29.8408 295.868 31.9129 294.712 34.0735 294.712H195.984C198.145 294.712 200.217 295.868 201.744 297.924C203.272 299.981 204.13 302.77 204.13 305.678C204.13 308.587 203.272 311.376 201.744 313.433C200.217 315.489 198.145 316.644 195.984 316.644Z" fill="#CCCCCC"/>
<path d="M208.204 363.25H46.2931C44.1326 363.25 42.0605 362.095 40.5327 360.038C39.005 357.982 38.1467 355.192 38.1467 352.284C38.1467 349.376 39.005 346.586 40.5327 344.53C42.0605 342.473 44.1326 341.318 46.2931 341.318H208.204C210.364 341.318 212.436 342.473 213.964 344.53C215.492 346.586 216.35 349.376 216.35 352.284C216.35 355.192 215.492 357.982 213.964 360.038C212.436 362.095 210.364 363.25 208.204 363.25Z" fill="#CCCCCC"/>
<path d="M208.204 409.855H46.2931C44.1326 409.855 42.0605 408.7 40.5327 406.644C39.005 404.587 38.1467 401.798 38.1467 398.889C38.1467 395.981 39.005 393.192 40.5327 391.135C42.0605 389.079 44.1326 387.923 46.2931 387.923H208.204C210.364 387.923 212.436 389.079 213.964 391.135C215.492 393.192 216.35 395.981 216.35 398.889C216.35 401.798 215.492 404.587 213.964 406.644C212.436 408.7 210.364 409.855 208.204 409.855Z" fill="#CCCCCC"/>
<path d="M110.446 176.828H34.0735C31.9129 176.828 29.8408 175.672 28.3131 173.616C26.7853 171.559 25.927 168.77 25.927 165.862C25.927 162.953 26.7853 160.164 28.3131 158.107C29.8408 156.051 31.9129 154.896 34.0735 154.896H110.446C112.607 154.896 114.679 156.051 116.207 158.107C117.735 160.164 118.593 162.953 118.593 165.862C118.593 168.77 117.735 171.559 116.207 173.616C114.679 175.672 112.607 176.828 110.446 176.828Z" fill="#22C78B"/>
<path d="M100.585 485.003C102.228 475.634 109.951 472.563 116.265 472.906C120.254 473.268 124.211 474.111 128.088 475.424C132.145 476.646 136.163 478.093 140.16 479.627C147.491 482.441 154.745 485.845 162.196 488.045C168.399 489.876 175.14 490.951 181.326 488.422C187.272 485.991 192.317 480.024 193.935 471.775C195.459 464 193.366 455.5 187.77 451.947C182.666 448.707 176.22 450.355 173.69 457.682C170.838 465.943 173.688 474.952 178.204 480.93C180.771 484.174 183.582 487.049 186.592 489.507C189.648 492.31 193.049 494.36 196.637 495.563C202.528 497.257 209.545 494.761 212.583 487.185C213.258 485.47 213.664 483.586 213.776 481.651C213.956 479.017 210.9 479.033 210.721 481.651C210.206 489.195 203.643 492.728 198.736 491.901C195.423 491.162 192.259 489.509 189.443 487.046C186.726 484.913 184.15 482.467 181.747 479.736C177.584 474.887 173.682 466.907 176.478 459.34C178.754 453.178 184.688 453.24 188.298 457.213C192.669 462.026 191.889 470.76 189.007 476.475C185.814 482.803 180.028 485.455 174.573 485.741C168.646 486.052 162.767 484.221 157.102 482.056C150.063 479.365 143.094 476.353 136.021 473.82C132.006 472.382 127.959 471.084 123.872 470.074C120.006 468.928 116.036 468.558 112.09 468.976C105.716 469.967 99.2087 474.962 97.6391 483.91C97.1876 486.483 100.132 487.581 100.585 485.003L100.585 485.003Z" fill="#3F3D56"/>
<path d="M412.695 717.508C412.871 744.499 414.34 771.447 417.092 798.183C417.188 799.122 417.293 800.061 417.39 801L605.168 799.588C605.719 798.655 606.262 797.712 606.788 796.757C608.541 793.596 610.184 790.346 611.692 786.984C618.942 770.785 622.261 751.82 618.935 738.735L618.875 738.532C618.157 735.666 617.026 733.02 615.546 730.745C607.963 719.255 592.631 721.17 578.717 730.445C591.197 712.056 601.134 688.852 601.889 668.14C602.629 647.937 594.782 633.505 586.27 621.241C585.991 620.835 585.711 620.441 585.432 620.047C585.297 619.844 585.153 619.653 585.018 619.45C578.377 610.103 570.635 600.89 559.428 602.004C547.138 603.229 533.512 617.086 523.957 633.234C514.403 649.371 508.054 667.702 501.619 685.593C495.175 703.472 488.203 721.808 477.863 737.09C491.868 713.244 503.16 686.113 507.331 659.726C511.502 633.339 507.831 607.996 495.35 595.569C491.56 591.912 487.175 589.531 482.562 588.623C482.024 588.503 481.477 588.405 480.921 588.319C469.366 586.549 455.571 591.928 443.833 604.787C430.906 618.945 421.944 639.934 417.485 659.859C413.026 679.784 412.551 698.965 412.695 717.508Z" fill="#E7E6E6"/>
<path d="M535.55 800.112L539.141 800.084C540.281 799.125 541.427 798.177 542.577 797.24C543.29 796.634 544.011 796.052 544.732 795.457C556.642 785.666 568.627 776.273 580.686 767.28C592.734 758.28 604.843 749.694 617.013 741.523C617.335 741.334 617.598 740.999 617.756 740.576C617.914 740.153 617.957 739.668 617.878 739.207C617.865 739.147 617.844 739.09 617.818 739.038C617.648 738.609 617.269 738.431 616.715 738.797C615.222 739.805 613.721 740.812 612.228 741.842C600.026 750.153 587.876 758.879 575.778 768.019C563.688 777.156 551.667 786.696 539.716 796.639C539.464 796.844 539.213 797.061 538.961 797.267C537.822 798.215 536.69 799.163 535.55 800.112Z" fill="white"/>
<path d="M489.253 800.46L491.473 800.443C491.974 799.5 492.466 798.556 492.967 797.613C504.733 775.403 516.496 753.193 528.257 730.983C547.517 694.622 566.772 658.26 586.02 621.899C586.134 621.704 586.219 621.48 586.27 621.241C586.435 620.436 585.995 619.964 585.432 620.047C585.195 620.093 584.967 620.206 584.765 620.379C584.563 620.553 584.39 620.782 584.259 621.052C573.461 641.443 562.665 661.827 551.873 682.203C532.713 718.383 513.556 754.558 494.402 790.73C493.183 793.026 491.965 795.333 490.747 797.629C490.246 798.573 489.745 799.516 489.253 800.46Z" fill="white"/>
<path d="M439.788 783.102C439.901 788.14 440.149 793.096 440.472 798.007C440.535 798.946 440.597 799.886 440.66 800.825L442.99 800.807C442.919 799.868 442.847 798.929 442.785 797.99C442.293 790.895 441.943 783.72 441.896 776.35C441.834 755.918 443.313 735.53 446.311 715.5C449.497 693.933 454.072 672.781 459.984 652.282C466.189 630.662 473.671 609.746 482.356 589.734C482.52 589.408 482.593 589.015 482.562 588.623C482.466 587.73 481.582 587.465 480.921 588.319C480.791 588.486 480.678 588.678 480.587 588.887C479.512 591.375 478.457 593.869 477.422 596.372C469.057 616.495 461.896 637.483 456.009 659.139C450.402 679.704 446.137 700.889 443.262 722.452C440.569 742.456 439.405 762.779 439.788 783.102Z" fill="white"/>
<path d="M212.831 485.977C212.444 485.544 212.162 484.967 212.019 484.318C211.876 483.67 211.879 482.979 212.027 482.332C212.176 481.686 212.463 481.113 212.853 480.686C213.242 480.259 213.717 479.997 214.218 479.933C219.772 479.21 225.377 479.984 230.707 482.208L284.998 504.778C285.701 505.07 286.354 505.546 286.92 506.178C287.486 506.81 287.955 507.585 288.298 508.461C288.641 509.336 288.853 510.294 288.922 511.28C288.99 512.266 288.914 513.26 288.697 514.206C288.48 515.152 288.126 516.031 287.657 516.793C287.187 517.555 286.611 518.186 285.961 518.648C285.31 519.11 284.599 519.396 283.866 519.488C283.134 519.58 282.396 519.477 281.693 519.185L227.401 496.614C222.068 494.405 217.115 490.789 212.831 485.977Z" fill="#3F3D56"/>
<path d="M435.378 579.736C433.903 578.903 432.582 577.646 431.507 576.051C430.433 574.457 429.631 572.565 429.158 570.508C428.686 568.452 428.554 566.281 428.772 564.148C428.99 562.015 429.553 559.973 430.421 558.165L421.115 492.654L444.833 490.165L446.265 554.244C448.425 556.408 449.92 559.563 450.467 563.112C451.014 566.661 450.575 570.357 449.233 573.499C447.891 576.641 445.74 579.012 443.186 580.161C440.632 581.311 437.854 581.16 435.378 579.736Z" fill="#FFB8B8"/>
<path d="M419.651 545.926L395.494 394.482C394.502 388.261 395.386 381.765 397.952 376.423C400.518 371.08 404.556 367.328 409.177 365.993C413.798 364.658 418.623 365.848 422.592 369.302C426.561 372.756 429.348 378.191 430.34 384.411L454.498 535.854C454.751 537.454 454.524 539.123 453.864 540.496C453.205 541.87 452.167 542.835 450.98 543.18L425.094 550.662C424.505 550.832 423.898 550.845 423.306 550.699C422.714 550.553 422.149 550.252 421.644 549.812C421.138 549.372 420.702 548.803 420.36 548.136C420.018 547.469 419.778 546.718 419.651 545.926Z" fill="#22C78B"/>
<path d="M380.001 784.159H367.518L361.578 719.339L380.004 719.34L380.001 784.159Z" fill="#FFB8B8"/>
<path d="M358.6 779.357H382.676V799.763H343.44C343.44 797.083 343.833 794.43 344.594 791.954C345.356 789.478 346.473 787.229 347.88 785.334C349.288 783.439 350.959 781.936 352.799 780.91C354.638 779.885 356.609 779.357 358.6 779.357Z" fill="#2F2E41"/>
<path d="M421.752 782.789H409.268L403.328 717.968L421.755 717.97L421.752 782.789Z" fill="#FFB8B8"/>
<path d="M400.35 777.986H424.427V798.393H385.191C385.191 795.713 385.583 793.059 386.345 790.583C387.107 788.108 388.223 785.858 389.631 783.963C391.039 782.068 392.71 780.565 394.549 779.54C396.388 778.514 398.36 777.986 400.35 777.986Z" fill="#2F2E41"/>
<path d="M365.044 772.068C364.576 771.551 364.189 770.913 363.906 770.193C363.624 769.472 363.451 768.682 363.398 767.87L348.884 552.964C348.828 552.13 348.899 551.289 349.092 550.493C349.285 549.697 349.596 548.962 350.007 548.333C350.418 547.704 350.92 547.194 351.482 546.834C352.044 546.475 352.654 546.273 353.276 546.242L426.064 542.567C426.694 542.536 427.322 542.679 427.909 542.989C428.496 543.299 429.029 543.769 429.475 544.369C429.921 544.968 430.27 545.685 430.501 546.475C430.731 547.265 430.838 548.11 430.816 548.958L424.997 763.038C424.954 764.536 424.508 765.963 423.742 767.051C422.976 768.14 421.942 768.816 420.833 768.955L406.156 770.751C405.547 770.826 404.934 770.735 404.352 770.486C403.769 770.237 403.23 769.833 402.765 769.299C402.301 768.764 401.92 768.11 401.646 767.375C401.372 766.64 401.21 765.838 401.169 765.018L394.434 629.016C394.429 628.755 394.385 628.497 394.306 628.259C394.226 628.02 394.113 627.805 393.971 627.627C393.829 627.448 393.662 627.309 393.48 627.219C393.298 627.128 393.104 627.087 392.91 627.098H392.904C392.709 627.087 392.515 627.13 392.333 627.222C392.15 627.314 391.984 627.454 391.842 627.634C391.7 627.815 391.587 628.031 391.508 628.271C391.43 628.511 391.388 628.77 391.384 629.032L385.357 765.951C385.297 767.417 384.848 768.805 384.092 769.864C383.337 770.923 382.324 771.583 381.239 771.723L368.417 773.45C367.815 773.533 367.206 773.454 366.627 773.217C366.048 772.979 365.509 772.589 365.044 772.068H365.044Z" fill="#2F2E41"/>
<path d="M393.042 333.811C406.855 333.811 418.053 318.738 418.053 300.144C418.053 281.55 406.855 266.477 393.042 266.477C379.229 266.477 368.032 281.55 368.032 300.144C368.032 318.738 379.229 333.811 393.042 333.811Z" fill="#FFB8B8"/>
<path d="M344.878 554.419C344.433 553.739 344.106 552.933 343.92 552.061C343.735 551.189 343.696 550.272 343.806 549.377C348.424 511.597 345.821 456.064 342.825 416.13C342.043 405.537 343.348 394.853 346.609 385.155C349.87 375.457 354.971 367.086 361.4 360.886L374.462 345.816C375.33 344.826 376.437 344.298 377.575 344.333L410.024 345.58C411.194 345.623 412.308 346.27 413.134 347.386L418.148 362.333L418.2 362.384C424.175 368.296 428.968 376.11 432.152 385.125C435.335 394.141 436.81 404.078 436.443 414.048L431.666 546.925C431.605 548.47 431.117 549.928 430.298 551.014C429.479 552.099 428.388 552.733 427.24 552.792L348.477 556.517C348.426 556.519 348.375 556.52 348.324 556.52C347.672 556.521 347.027 556.334 346.432 555.972C345.838 555.61 345.308 555.08 344.878 554.419Z" fill="#22C78B"/>
<path d="M250.404 498.971C250.365 496.819 250.677 494.681 251.318 492.709C251.958 490.737 252.913 488.977 254.113 487.555C255.314 486.133 256.731 485.082 258.266 484.477C259.801 483.873 261.416 483.728 262.997 484.054L303.591 445.812L314.986 473.923L272.139 501.908C271.556 505.447 270.029 508.575 267.848 510.699C265.666 512.823 262.981 513.797 260.302 513.435C257.623 513.073 255.136 511.4 253.312 508.735C251.487 506.069 250.453 502.595 250.404 498.971L250.404 498.971Z" fill="#FFB8B8"/>
<path d="M284.567 505.618C283.972 505.498 283.4 505.219 282.885 504.799C282.371 504.379 281.923 503.826 281.568 503.171L265.902 474.44C265.184 473.121 264.884 471.472 265.069 469.855C265.253 468.239 265.906 466.787 266.884 465.817L359.646 374.164C363.456 370.399 368.221 368.826 372.893 369.791C375.206 370.269 377.427 371.355 379.428 372.988C381.43 374.621 383.172 376.769 384.557 379.308C385.942 381.848 386.941 384.73 387.499 387.789C388.056 390.849 388.16 394.026 387.805 397.14C387.451 400.254 386.644 403.243 385.43 405.937C384.217 408.631 382.622 410.977 380.735 412.841L287.973 504.494C287.191 505.271 286.244 505.691 285.272 505.691C285.036 505.691 284.8 505.666 284.567 505.618Z" fill="#22C78B"/>
<path d="M394.323 330.115C397.639 324.64 397.276 316.302 394.614 310.214C391.952 304.126 387.433 299.933 382.783 296.659C378.134 293.384 373.194 290.808 368.818 286.909C364.442 283.01 364.633 266.502 363.468 259.614L366.247 260.86C365.179 259.021 364.836 253.586 363.768 251.747C366.908 252.164 369.323 256.178 372.463 256.595L370.651 250.048C381.419 249.154 388.113 259.227 398.881 258.333C404.217 257.89 410.011 257.61 414.396 261.723C418.208 265.297 420.137 271.483 421.403 277.499C424.121 290.416 424.543 304.885 419.849 316.73C415.154 328.575 404.333 336.556 394.88 332.279L394.323 330.115Z" fill="#2F2E41"/>
<path d="M257.007 800.521H644.982C645.252 800.521 645.511 800.376 645.702 800.119C645.893 799.862 646 799.514 646 799.15C646 798.787 645.893 798.438 645.702 798.181C645.511 797.924 645.252 797.779 644.982 797.779H257.007C256.737 797.779 256.478 797.924 256.287 798.181C256.096 798.438 255.989 798.787 255.989 799.15C255.989 799.514 256.096 799.862 256.287 800.119C256.478 800.376 256.737 800.521 257.007 800.521Z" fill="#3F3D56"/>
</g>
<defs>
<clipPath id="clip0">
<rect width="646" height="801" fill="white"/>
</clipPath>
</defs>
</svg>
