<svg width="1075" height="585" viewBox="0 0 1075 585" fill="none" xmlns="http://www.w3.org/2000/svg">
<g clip-path="url(#clip0)">
<path d="M520.426 167.01C434.482 167.01 372.775 222.149 372.775 350.808C372.775 496.621 434.482 535.218 520.426 535.218C606.37 535.218 671.753 492.945 671.753 350.808C671.753 198.868 606.37 167.01 520.426 167.01ZM520.991 486.818C461.464 486.818 430.365 451.895 430.365 350.902C430.365 261.79 462.737 214.797 522.264 214.797C581.791 214.797 614.163 245.665 614.163 350.902C614.163 449.349 580.517 486.818 520.991 486.818Z" fill="#2F2E41"/>
<path d="M321.311 433.517H285.777V328.878C285.777 323.32 283.569 317.99 279.639 314.06C275.709 310.13 270.379 307.922 264.821 307.922H256.495C253.743 307.922 251.018 308.464 248.475 309.517C245.933 310.57 243.623 312.114 241.677 314.06C239.731 316.005 238.187 318.316 237.134 320.858C236.081 323.401 235.539 326.126 235.539 328.878V433.517H135.309C133.247 433.517 131.22 432.984 129.425 431.97C127.629 430.956 126.127 429.495 125.062 427.729C123.998 425.963 123.408 423.951 123.35 421.89C123.292 419.829 123.768 417.788 124.731 415.965L230.814 215.185C232.136 212.681 232.938 209.936 233.17 207.115C233.402 204.293 233.061 201.454 232.165 198.768C231.27 196.082 229.84 193.605 227.961 191.488C226.082 189.37 223.793 187.655 221.233 186.446L214.971 183.489C210.108 181.192 204.549 180.853 199.444 182.541C194.338 184.23 190.077 187.816 187.542 192.559L58.1602 434.591C55.957 438.713 54.8043 443.314 54.8043 447.987C54.8043 451.719 55.5393 455.414 56.9673 458.861C58.3954 462.309 60.4885 465.442 63.1271 468.08C65.7658 470.719 68.8983 472.812 72.3459 474.24C75.7935 475.668 79.4885 476.403 83.2202 476.403H235.539V542.57C235.539 545.869 236.189 549.135 237.451 552.183C238.713 555.231 240.564 558 242.896 560.332C245.229 562.665 247.998 564.515 251.045 565.777C254.093 567.04 257.359 567.689 260.658 567.689C263.957 567.689 267.223 567.04 270.271 565.777C273.318 564.515 276.087 562.665 278.42 560.332C280.752 558 282.603 555.231 283.865 552.183C285.127 549.135 285.777 545.869 285.777 542.57V476.403H321.311C326.998 476.403 332.452 474.144 336.474 470.123C340.495 466.101 342.754 460.647 342.754 454.96C342.754 449.273 340.495 443.819 336.474 439.797C332.453 435.776 326.998 433.517 321.311 433.517Z" fill="#22C78B"/>
<path d="M948.525 474.931L915.549 461.69L954.54 364.586C956.611 359.429 956.548 353.66 954.366 348.548C952.183 343.437 948.059 339.402 942.902 337.331L935.175 334.229C932.621 333.203 929.891 332.691 927.139 332.721C924.387 332.751 921.668 333.322 919.137 334.403C916.606 335.484 914.313 337.052 912.388 339.019C910.464 340.986 908.945 343.313 907.92 345.867L868.929 442.97L775.917 405.623C774.004 404.854 772.321 403.605 771.033 401.995C769.745 400.384 768.895 398.469 768.566 396.433C768.236 394.398 768.438 392.312 769.152 390.377C769.866 388.443 771.068 386.726 772.642 385.393L945.899 238.601C948.059 236.771 949.826 234.522 951.093 231.99C952.36 229.458 953.101 226.696 953.271 223.87C953.44 221.044 953.036 218.213 952.082 215.547C951.127 212.882 949.642 210.437 947.717 208.362L943.008 203.284C939.351 199.341 934.319 196.955 928.952 196.619C923.585 196.284 918.294 198.024 914.174 201.48L703.924 377.873C700.344 380.876 697.56 384.717 695.818 389.053C693.01 396.047 693.095 403.87 696.055 410.801C699.014 417.732 704.606 423.203 711.6 426.011L852.949 482.768L828.294 544.17C825.811 550.352 825.887 557.268 828.503 563.394C831.119 569.521 836.062 574.358 842.244 576.84C848.426 579.322 855.341 579.247 861.468 576.631C867.595 574.015 872.431 569.072 874.914 562.89L899.569 501.488L932.544 514.729C937.822 516.848 943.725 516.783 948.955 514.55C954.185 512.317 958.314 508.097 960.433 502.82C962.552 497.542 962.488 491.639 960.255 486.409C958.022 481.179 953.802 477.05 948.525 474.931Z" fill="#22C78B"/>
<path d="M331.114 421.264H295.58V316.624C295.58 313.872 295.038 311.147 293.984 308.605C292.931 306.062 291.388 303.752 289.442 301.806C287.496 299.86 285.186 298.317 282.643 297.263C280.101 296.21 277.376 295.668 274.624 295.668H266.297C260.74 295.668 255.409 297.876 251.479 301.806C247.549 305.736 245.342 311.066 245.342 316.624V421.264H145.111C143.05 421.264 141.023 420.731 139.227 419.716C137.432 418.702 135.929 417.241 134.865 415.475C133.801 413.709 133.211 411.698 133.153 409.637C133.095 407.576 133.571 405.535 134.534 403.712L240.616 202.931C241.939 200.428 242.74 197.683 242.973 194.861C243.205 192.04 242.863 189.2 241.968 186.514C241.073 183.828 239.642 181.352 237.763 179.234C235.884 177.116 233.596 175.401 231.036 174.192L224.774 171.235C219.911 168.939 214.352 168.6 209.246 170.288C204.141 171.976 199.879 175.563 197.344 180.305L67.9628 422.338C65.7596 426.459 64.6069 431.06 64.6069 435.734V435.734C64.6069 443.27 67.6007 450.498 72.9297 455.827C78.2587 461.156 85.4864 464.15 93.0228 464.15H245.342V530.317C245.342 533.616 245.991 536.882 247.254 539.93C248.516 542.977 250.366 545.746 252.699 548.079C255.031 550.411 257.8 552.262 260.848 553.524C263.895 554.786 267.162 555.436 270.461 555.436H270.461C277.123 555.436 283.512 552.789 288.222 548.079C292.933 543.368 295.58 536.979 295.58 530.317V464.15H331.114C333.93 464.15 336.718 463.595 339.32 462.517C341.921 461.44 344.285 459.86 346.276 457.869C348.268 455.878 349.847 453.514 350.925 450.913C352.002 448.311 352.557 445.523 352.557 442.707V442.707C352.557 439.891 352.002 437.102 350.925 434.501C349.847 431.899 348.268 429.535 346.276 427.544C344.285 425.553 341.921 423.973 339.32 422.896C336.718 421.818 333.93 421.264 331.114 421.264V421.264Z" stroke="#3F3D56" stroke-miterlimit="10"/>
<path d="M966.993 462.596L934.006 449.385L972.911 352.247C974.977 347.087 974.91 341.318 972.723 336.209C970.535 331.099 966.408 327.068 961.249 325.002L953.519 321.906C950.965 320.883 948.233 320.373 945.482 320.405C942.73 320.437 940.011 321.011 937.481 322.094C934.952 323.177 932.66 324.748 930.737 326.717C928.814 328.685 927.297 331.013 926.274 333.568L887.37 430.706L794.325 393.441C792.411 392.674 790.727 391.426 789.438 389.817C788.148 388.208 787.296 386.293 786.965 384.258C786.633 382.223 786.834 380.137 787.546 378.202C788.259 376.267 789.459 374.549 791.031 373.214L964.158 226.269C966.317 224.436 968.082 222.186 969.347 219.653C970.611 217.12 971.35 214.357 971.517 211.531C971.684 208.705 971.277 205.874 970.321 203.209C969.364 200.545 967.877 198.102 965.95 196.028L961.236 190.954C957.576 187.015 952.541 184.633 947.174 184.302C941.807 183.971 936.517 185.716 932.401 189.176L722.307 365.754C718.729 368.761 715.949 372.604 714.211 376.943C711.409 383.939 711.501 391.761 714.467 398.69C717.432 405.618 723.029 411.084 730.025 413.886L871.425 470.518L846.824 531.942C844.347 538.126 844.428 545.041 847.05 551.166C849.671 557.29 854.619 562.123 860.803 564.6V564.6C866.987 567.076 873.902 566.995 880.027 564.374C886.151 561.752 890.984 556.805 893.46 550.62L918.061 489.196L951.048 502.408C953.662 503.455 956.457 503.977 959.273 503.944C962.088 503.911 964.87 503.323 967.459 502.215C970.048 501.107 972.393 499.5 974.36 497.485C976.328 495.471 977.88 493.089 978.927 490.475V490.475C981.041 485.195 980.972 479.292 978.734 474.064C976.496 468.836 972.273 464.711 966.993 462.596V462.596Z" stroke="#3F3D56" stroke-miterlimit="10"/>
<path d="M540.031 155.982C454.087 155.982 392.38 211.121 392.38 339.78C392.38 485.593 454.087 524.19 540.031 524.19C625.975 524.19 691.358 481.917 691.358 339.78C691.358 187.84 625.975 155.982 540.031 155.982ZM540.596 475.79C481.069 475.79 449.97 440.867 449.97 339.874C449.97 250.762 482.342 203.769 541.869 203.769C601.396 203.769 633.768 234.637 633.768 339.874C633.768 438.321 600.123 475.79 540.596 475.79Z" stroke="black" stroke-miterlimit="10"/>
<path d="M611.086 133.756C611.086 133.756 614.338 143.127 617.315 140.632L614.942 128.382L611.086 133.756Z" fill="#FBBEBE"/>
<path d="M480.946 341.116C490.335 341.116 497.946 331.266 497.946 319.116C497.946 306.965 490.335 297.116 480.946 297.116C471.557 297.116 463.946 306.965 463.946 319.116C463.946 331.266 471.557 341.116 480.946 341.116Z" fill="#2F2E41"/>
<path d="M573.446 341.616C582.835 341.616 590.446 331.766 590.446 319.616C590.446 307.465 582.835 297.616 573.446 297.616C564.057 297.616 556.446 307.465 556.446 319.616C556.446 331.766 564.057 341.616 573.446 341.616Z" fill="#2F2E41"/>
<path d="M560.446 384.615C560.446 394.555 546.566 402.615 529.446 402.615C512.326 402.615 498.446 394.555 498.446 384.615C498.446 376.005 508.856 368.805 522.766 367.045C524.981 366.753 527.212 366.61 529.446 366.615C533.189 366.603 536.922 367.006 540.576 367.816C552.196 370.406 560.446 376.955 560.446 384.615Z" fill="#2F2E41"/>
<path d="M484.946 336.116C494.335 336.116 501.946 326.266 501.946 314.116C501.946 301.965 494.335 292.116 484.946 292.116C475.557 292.116 467.946 301.965 467.946 314.116C467.946 326.266 475.557 336.116 484.946 336.116Z" stroke="#3F3D56" stroke-miterlimit="10"/>
<path d="M577.446 336.616C586.835 336.616 594.446 326.766 594.446 314.616C594.446 302.465 586.835 292.616 577.446 292.616C568.057 292.616 560.446 302.465 560.446 314.616C560.446 326.766 568.057 336.616 577.446 336.616Z" stroke="#3F3D56" stroke-miterlimit="10"/>
<path d="M533.446 397.616C550.567 397.616 564.446 389.557 564.446 379.616C564.446 369.675 550.567 361.616 533.446 361.616C516.325 361.616 502.446 369.675 502.446 379.616C502.446 389.557 516.325 397.616 533.446 397.616Z" stroke="#3F3D56" stroke-miterlimit="10"/>
<path d="M540.946 369.316C540.954 370.573 540.482 371.786 539.626 372.707C539.222 373.149 538.73 373.502 538.183 373.744C537.636 373.986 537.044 374.113 536.446 374.115H526.446C525.214 374.073 524.049 373.544 523.205 372.644C522.362 371.745 521.909 370.548 521.946 369.316C521.941 368.341 522.226 367.386 522.766 366.574C524.979 366.263 527.211 366.109 529.446 366.115C533.193 366.103 536.929 366.533 540.576 367.396C540.823 368.005 540.948 368.658 540.946 369.316Z" fill="white"/>
<path d="M484.946 313.116C487.707 313.116 489.946 310.877 489.946 308.116C489.946 305.354 487.707 303.116 484.946 303.116C482.185 303.116 479.946 305.354 479.946 308.116C479.946 310.877 482.185 313.116 484.946 313.116Z" fill="white"/>
<path d="M577.946 313.116C580.707 313.116 582.946 310.877 582.946 308.116C582.946 305.354 580.707 303.116 577.946 303.116C575.185 303.116 572.946 305.354 572.946 308.116C572.946 310.877 575.185 313.116 577.946 313.116Z" fill="white"/>
<path opacity="0.3" d="M582.946 360.116C585.707 360.116 587.946 357.877 587.946 355.116C587.946 352.354 585.707 350.116 582.946 350.116C580.185 350.116 577.946 352.354 577.946 355.116C577.946 357.877 580.185 360.116 582.946 360.116Z" fill="#6C63FF"/>
<path opacity="0.3" d="M460.946 360.116C463.707 360.116 465.946 357.877 465.946 355.116C465.946 352.354 463.707 350.116 460.946 350.116C458.185 350.116 455.946 352.354 455.946 355.116C455.946 357.877 458.185 360.116 460.946 360.116Z" fill="#6C63FF"/>
</g>
<defs>
<clipPath id="clip0">
<rect width="1074.39" height="584.231" fill="white"/>
</clipPath>
</defs>
</svg>
